<?xml version="1.0" standalone="no"?><!DOCTYPE svg PUBLIC "-//W3C//DTD SVG 1.1//EN" "http://www.w3.org/Graphics/SVG/1.1/DTD/svg11.dtd"><svg t="1690531533278" class="icon" viewBox="0 0 1024 1024" version="1.1" xmlns="http://www.w3.org/2000/svg" p-id="1578" xmlns:xlink="http://www.w3.org/1999/xlink" width="30" height="30"><path d="M579.2256 159.7952a94.6688 94.6688 0 0 0-97.9456 3.1232L324.0448 263.1168a39.5776 39.5776 0 0 1-21.2992 6.1952H218.9312A130.4064 130.4064 0 0 0 88.6784 399.36v211.8656a130.4064 130.4064 0 0 0 130.2528 130.2528H296.96a39.68 39.68 0 0 1 21.1456 6.0928l163.84 103.2704a96 96 0 0 0 147.2-81.2032V243.9168a94.72 94.72 0 0 0-49.92-84.1216z m-6.5024 610.048a39.68 39.68 0 0 1-60.7232 33.536l-163.84-103.2192a95.6416 95.6416 0 0 0-51.2-14.7968H218.9312a73.984 73.984 0 0 1-73.9328-73.9328V399.36a74.0352 74.0352 0 0 1 73.9328-73.728h83.8144a95.8976 95.8976 0 0 0 51.5584-15.0016L512 210.432a39.68 39.68 0 0 1 60.9792 33.4848zM734.1056 332.288a28.16 28.16 0 0 0-39.7824 39.8336 190.6176 190.6176 0 0 1 0 269.5168 28.16 28.16 0 1 0 39.7824 39.8336 246.8352 246.8352 0 0 0 0-349.184z" fill="#fffffe" p-id="1579"></path><path d="M798.72 256.7168a28.16 28.16 0 0 0 0 39.8336 297.7792 297.7792 0 0 1 0 420.6592 28.16 28.16 0 0 0 39.8336 39.8336 353.7408 353.7408 0 0 0 0-500.3264 28.16 28.16 0 0 0-39.8336 0z" fill="#fffffe" p-id="1580"></path></svg>