<?xml version="1.0" standalone="no"?><!DOCTYPE svg PUBLIC "-//W3C//DTD SVG 1.1//EN" "http://www.w3.org/Graphics/SVG/1.1/DTD/svg11.dtd"><svg t="1690531562173" class="icon" viewBox="0 0 1024 1024" version="1.1" xmlns="http://www.w3.org/2000/svg" p-id="1901" xmlns:xlink="http://www.w3.org/1999/xlink" width="30" height="30"><path d="M595.6096 161.8944a93.2352 93.2352 0 0 0-96.1536 3.1232L345.5488 262.9632a38.1952 38.1952 0 0 1-20.48 5.9392h-81.92a128 128 0 0 0-128 128V604.16a128 128 0 0 0 128 128h76.1344a38.144 38.144 0 0 1 20.48 5.8368l160.2048 100.9152a93.7984 93.7984 0 0 0 50.2784 14.7456 94.7712 94.7712 0 0 0 45.7216-11.9296 93.3888 93.3888 0 0 0 48.8448-82.7392V244.736a93.2352 93.2352 0 0 0-49.2032-82.8416z m-7.2704 596.8896a38.144 38.144 0 0 1-58.5216 32.3072l-160.2048-100.9664a94.6688 94.6688 0 0 0-50.3296-14.2848H243.1488a71.68 71.68 0 0 1-71.68-71.68V396.8512a71.68 71.68 0 0 1 71.68-71.68h81.92a94.6688 94.6688 0 0 0 50.7392-14.7456l153.856-97.9456a38.144 38.144 0 0 1 58.6752 32.2048zM928.256 390.4512a28.16 28.16 0 0 0-39.7824 1.6896l-62.5152 67.9936-62.464-67.9936A28.16 28.16 0 0 0 721.92 430.08l65.6896 71.68L721.92 573.44a28.16 28.16 0 1 0 41.472 38.0928l62.464-67.9936 62.5152 67.9936a28.16 28.16 0 0 0 41.472-38.0928l-65.6384-71.68 65.7408-71.68a28.16 28.16 0 0 0-1.6896-39.6288z" fill="#94a1b2" p-id="1902"></path></svg>